<mxfile host="65bd71144e">
    <diagram id="KjG14Q_7bZ2Fs4syXYFA" name="Top Down">
        <mxGraphModel dx="1074" dy="717" grid="1" gridSize="10" guides="1" tooltips="1" connect="1" arrows="1" fold="1" page="1" pageScale="1" pageWidth="827" pageHeight="1169" math="0" shadow="0">
            <root>
                <mxCell id="0"/>
                <mxCell id="1" parent="0"/>
                <mxCell id="QtO_xw6DOo0jZK6YUWM9-8" value="" style="edgeStyle=none;html=1;" parent="1" source="QtO_xw6DOo0jZK6YUWM9-1" target="QtO_xw6DOo0jZK6YUWM9-3" edge="1">
                    <mxGeometry relative="1" as="geometry"/>
                </mxCell>
                <mxCell id="QtO_xw6DOo0jZK6YUWM9-9" style="edgeStyle=orthogonalEdgeStyle;html=1;entryX=0.5;entryY=0;entryDx=0;entryDy=0;rounded=0;" parent="1" source="QtO_xw6DOo0jZK6YUWM9-1" target="QtO_xw6DOo0jZK6YUWM9-2" edge="1">
                    <mxGeometry relative="1" as="geometry">
                        <Array as="points">
                            <mxPoint x="414" y="160"/>
                            <mxPoint x="260" y="160"/>
                        </Array>
                    </mxGeometry>
                </mxCell>
                <mxCell id="QtO_xw6DOo0jZK6YUWM9-10" style="edgeStyle=orthogonalEdgeStyle;html=1;entryX=0.5;entryY=0;entryDx=0;entryDy=0;rounded=0;" parent="1" source="QtO_xw6DOo0jZK6YUWM9-1" target="QtO_xw6DOo0jZK6YUWM9-4" edge="1">
                    <mxGeometry relative="1" as="geometry">
                        <Array as="points">
                            <mxPoint x="414" y="160"/>
                            <mxPoint x="570" y="160"/>
                        </Array>
                    </mxGeometry>
                </mxCell>
                <mxCell id="QtO_xw6DOo0jZK6YUWM9-1" value="Reorder List" style="rounded=0;whiteSpace=wrap;html=1;" parent="1" vertex="1">
                    <mxGeometry x="354" y="80" width="120" height="60" as="geometry"/>
                </mxCell>
                <mxCell id="QtO_xw6DOo0jZK6YUWM9-11" value="" style="edgeStyle=orthogonalEdgeStyle;rounded=0;html=1;" parent="1" source="QtO_xw6DOo0jZK6YUWM9-2" target="QtO_xw6DOo0jZK6YUWM9-5" edge="1">
                    <mxGeometry relative="1" as="geometry"/>
                </mxCell>
                <mxCell id="QtO_xw6DOo0jZK6YUWM9-2" value="Input" style="rounded=0;whiteSpace=wrap;html=1;" parent="1" vertex="1">
                    <mxGeometry x="200" y="180" width="120" height="60" as="geometry"/>
                </mxCell>
                <mxCell id="QtO_xw6DOo0jZK6YUWM9-12" value="" style="edgeStyle=orthogonalEdgeStyle;rounded=0;html=1;" parent="1" source="QtO_xw6DOo0jZK6YUWM9-3" target="QtO_xw6DOo0jZK6YUWM9-6" edge="1">
                    <mxGeometry relative="1" as="geometry"/>
                </mxCell>
                <mxCell id="QtO_xw6DOo0jZK6YUWM9-3" value="Process" style="rounded=0;whiteSpace=wrap;html=1;" parent="1" vertex="1">
                    <mxGeometry x="354" y="180" width="120" height="60" as="geometry"/>
                </mxCell>
                <mxCell id="QtO_xw6DOo0jZK6YUWM9-13" value="" style="edgeStyle=orthogonalEdgeStyle;rounded=0;html=1;" parent="1" source="QtO_xw6DOo0jZK6YUWM9-4" target="QtO_xw6DOo0jZK6YUWM9-7" edge="1">
                    <mxGeometry relative="1" as="geometry"/>
                </mxCell>
                <mxCell id="QtO_xw6DOo0jZK6YUWM9-4" value="output" style="rounded=0;whiteSpace=wrap;html=1;" parent="1" vertex="1">
                    <mxGeometry x="510" y="180" width="120" height="60" as="geometry"/>
                </mxCell>
                <mxCell id="QtO_xw6DOo0jZK6YUWM9-5" value="Get inpt" style="rounded=0;whiteSpace=wrap;html=1;" parent="1" vertex="1">
                    <mxGeometry x="200" y="280" width="120" height="60" as="geometry"/>
                </mxCell>
                <mxCell id="QtO_xw6DOo0jZK6YUWM9-6" value="insert elements from inpt to outpt so they are in order from largest to smallest" style="rounded=0;whiteSpace=wrap;html=1;" parent="1" vertex="1">
                    <mxGeometry x="354" y="280" width="120" height="60" as="geometry"/>
                </mxCell>
                <mxCell id="QtO_xw6DOo0jZK6YUWM9-7" value="Return outpt" style="rounded=0;whiteSpace=wrap;html=1;" parent="1" vertex="1">
                    <mxGeometry x="510" y="280" width="120" height="60" as="geometry"/>
                </mxCell>
            </root>
        </mxGraphModel>
    </diagram>
    <diagram id="aqkya4TFRdpiTSBKbrii" name="Flowchart">
        <mxGraphModel dx="1074" dy="717" grid="1" gridSize="10" guides="1" tooltips="1" connect="1" arrows="1" fold="1" page="1" pageScale="1" pageWidth="827" pageHeight="1169" math="0" shadow="0">
            <root>
                <mxCell id="7Z-LrOooxTyzb09muiCP-0"/>
                <mxCell id="7Z-LrOooxTyzb09muiCP-1" parent="7Z-LrOooxTyzb09muiCP-0"/>
                <mxCell id="7Z-LrOooxTyzb09muiCP-7" value="" style="edgeStyle=none;html=1;" parent="7Z-LrOooxTyzb09muiCP-1" source="7Z-LrOooxTyzb09muiCP-2" target="7Z-LrOooxTyzb09muiCP-3" edge="1">
                    <mxGeometry relative="1" as="geometry"/>
                </mxCell>
                <mxCell id="7Z-LrOooxTyzb09muiCP-2" value="Start" style="strokeWidth=2;html=1;shape=mxgraph.flowchart.terminator;whiteSpace=wrap;" parent="7Z-LrOooxTyzb09muiCP-1" vertex="1">
                    <mxGeometry x="364" y="80" width="100" height="60" as="geometry"/>
                </mxCell>
                <mxCell id="1" value="" style="edgeStyle=none;html=1;" edge="1" parent="7Z-LrOooxTyzb09muiCP-1" source="7Z-LrOooxTyzb09muiCP-3" target="0">
                    <mxGeometry relative="1" as="geometry"/>
                </mxCell>
                <mxCell id="7Z-LrOooxTyzb09muiCP-3" value="Get inpt" style="shape=parallelogram;html=1;strokeWidth=2;perimeter=parallelogramPerimeter;whiteSpace=wrap;rounded=1;arcSize=12;size=0.23;" parent="7Z-LrOooxTyzb09muiCP-1" vertex="1">
                    <mxGeometry x="364" y="170" width="100" height="60" as="geometry"/>
                </mxCell>
                <mxCell id="7Z-LrOooxTyzb09muiCP-10" value="" style="edgeStyle=none;html=1;" parent="7Z-LrOooxTyzb09muiCP-1" source="7Z-LrOooxTyzb09muiCP-5" target="7Z-LrOooxTyzb09muiCP-6" edge="1">
                    <mxGeometry relative="1" as="geometry"/>
                </mxCell>
                <mxCell id="7Z-LrOooxTyzb09muiCP-5" value="Return outpt" style="shape=parallelogram;html=1;strokeWidth=2;perimeter=parallelogramPerimeter;whiteSpace=wrap;rounded=1;arcSize=12;size=0.23;" parent="7Z-LrOooxTyzb09muiCP-1" vertex="1">
                    <mxGeometry x="770" y="380" width="166" height="60" as="geometry"/>
                </mxCell>
                <mxCell id="7Z-LrOooxTyzb09muiCP-6" value="Stop" style="strokeWidth=2;html=1;shape=mxgraph.flowchart.terminator;whiteSpace=wrap;" parent="7Z-LrOooxTyzb09muiCP-1" vertex="1">
                    <mxGeometry x="803" y="470" width="100" height="60" as="geometry"/>
                </mxCell>
                <mxCell id="3" value="" style="edgeStyle=none;html=1;" edge="1" parent="7Z-LrOooxTyzb09muiCP-1" source="0" target="2">
                    <mxGeometry relative="1" as="geometry"/>
                </mxCell>
                <mxCell id="17" style="edgeStyle=orthogonalEdgeStyle;rounded=0;html=1;" edge="1" parent="7Z-LrOooxTyzb09muiCP-1" source="0" target="7Z-LrOooxTyzb09muiCP-5">
                    <mxGeometry relative="1" as="geometry"/>
                </mxCell>
                <mxCell id="0" value="for counter1 in range(len(inpt))" style="strokeWidth=2;html=1;shape=mxgraph.flowchart.decision;whiteSpace=wrap;" vertex="1" parent="7Z-LrOooxTyzb09muiCP-1">
                    <mxGeometry x="246" y="260" width="336" height="100" as="geometry"/>
                </mxCell>
                <mxCell id="5" value="" style="edgeStyle=none;html=1;" edge="1" parent="7Z-LrOooxTyzb09muiCP-1" source="2" target="4">
                    <mxGeometry relative="1" as="geometry"/>
                </mxCell>
                <mxCell id="2" value="counter2 = 0" style="rounded=1;whiteSpace=wrap;html=1;absoluteArcSize=1;arcSize=14;strokeWidth=2;" vertex="1" parent="7Z-LrOooxTyzb09muiCP-1">
                    <mxGeometry x="292" y="390" width="244" height="60" as="geometry"/>
                </mxCell>
                <mxCell id="9" value="" style="edgeStyle=none;html=1;" edge="1" parent="7Z-LrOooxTyzb09muiCP-1" source="4" target="8">
                    <mxGeometry relative="1" as="geometry"/>
                </mxCell>
                <mxCell id="15" style="edgeStyle=orthogonalEdgeStyle;rounded=0;html=1;" edge="1" parent="7Z-LrOooxTyzb09muiCP-1" source="4">
                    <mxGeometry relative="1" as="geometry">
                        <mxPoint x="710" y="910" as="targetPoint"/>
                    </mxGeometry>
                </mxCell>
                <mxCell id="4" value="for string in outpt" style="strokeWidth=2;html=1;shape=mxgraph.flowchart.decision;whiteSpace=wrap;" vertex="1" parent="7Z-LrOooxTyzb09muiCP-1">
                    <mxGeometry x="246" y="484.5" width="336" height="100" as="geometry"/>
                </mxCell>
                <mxCell id="14" style="edgeStyle=orthogonalEdgeStyle;rounded=0;html=1;entryX=0;entryY=0.5;entryDx=0;entryDy=0;entryPerimeter=0;" edge="1" parent="7Z-LrOooxTyzb09muiCP-1" source="6" target="4">
                    <mxGeometry relative="1" as="geometry">
                        <Array as="points">
                            <mxPoint x="414" y="860"/>
                            <mxPoint x="200" y="860"/>
                            <mxPoint x="200" y="535"/>
                        </Array>
                    </mxGeometry>
                </mxCell>
                <mxCell id="6" value="counter2 += 1" style="rounded=1;whiteSpace=wrap;html=1;absoluteArcSize=1;arcSize=14;strokeWidth=2;" vertex="1" parent="7Z-LrOooxTyzb09muiCP-1">
                    <mxGeometry x="292" y="740" width="244" height="60" as="geometry"/>
                </mxCell>
                <mxCell id="10" value="" style="edgeStyle=none;html=1;" edge="1" parent="7Z-LrOooxTyzb09muiCP-1" source="8" target="6">
                    <mxGeometry relative="1" as="geometry"/>
                </mxCell>
                <mxCell id="12" style="edgeStyle=orthogonalEdgeStyle;html=1;entryX=0;entryY=0.5;entryDx=0;entryDy=0;entryPerimeter=0;rounded=0;" edge="1" parent="7Z-LrOooxTyzb09muiCP-1" source="8" target="4">
                    <mxGeometry relative="1" as="geometry">
                        <Array as="points">
                            <mxPoint x="630" y="660"/>
                            <mxPoint x="630" y="860"/>
                            <mxPoint x="200" y="860"/>
                            <mxPoint x="200" y="535"/>
                        </Array>
                    </mxGeometry>
                </mxCell>
                <mxCell id="8" value="if len(string) &amp;gt; len(inpt[counter1])" style="strokeWidth=2;html=1;shape=mxgraph.flowchart.decision;whiteSpace=wrap;" vertex="1" parent="7Z-LrOooxTyzb09muiCP-1">
                    <mxGeometry x="246" y="610" width="336" height="100" as="geometry"/>
                </mxCell>
                <mxCell id="16" style="edgeStyle=orthogonalEdgeStyle;rounded=0;html=1;entryX=0;entryY=0.5;entryDx=0;entryDy=0;entryPerimeter=0;" edge="1" parent="7Z-LrOooxTyzb09muiCP-1" source="11" target="0">
                    <mxGeometry relative="1" as="geometry">
                        <Array as="points">
                            <mxPoint x="712" y="1000"/>
                            <mxPoint x="160" y="1000"/>
                            <mxPoint x="160" y="310"/>
                        </Array>
                    </mxGeometry>
                </mxCell>
                <mxCell id="11" value="outpt.insert(counter2, inpt[counter1])" style="rounded=1;whiteSpace=wrap;html=1;absoluteArcSize=1;arcSize=14;strokeWidth=2;" vertex="1" parent="7Z-LrOooxTyzb09muiCP-1">
                    <mxGeometry x="590" y="910" width="244" height="60" as="geometry"/>
                </mxCell>
            </root>
        </mxGraphModel>
    </diagram>
</mxfile>